<svg width="11" height="10" viewBox="0 0 11 10" fill="none" xmlns="http://www.w3.org/2000/svg">
<path d="M6.64077 9.59797C6.77827 9.59797 6.89701 9.55188 6.99701 9.45969C7.09701 9.36751 7.14701 9.25805 7.14701 9.1313V5.98564H10.4844C10.6219 5.98564 10.7407 5.93955 10.8407 5.84737C10.9407 5.75519 10.9907 5.64572 10.9907 5.51897V4.37824C10.9907 4.25149 10.9407 4.14202 10.8407 4.04984C10.7407 3.95766 10.6219 3.91157 10.4844 3.91157H7.14701V0.783193C7.14701 0.656444 7.09701 0.54698 6.99701 0.454799C6.89701 0.362619 6.77827 0.316528 6.64077 0.316528H5.21581C5.07831 0.316528 4.95956 0.362619 4.85957 0.454799C4.75957 0.54698 4.70957 0.656444 4.70957 0.783193V3.91157H1.35341C1.21591 3.91157 1.09716 3.95766 0.997164 4.04984C0.897167 4.14202 0.847168 4.25149 0.847168 4.37824V5.51897C0.847168 5.64572 0.897167 5.75519 0.997164 5.84737C1.09716 5.93955 1.21591 5.98564 1.35341 5.98564H4.70957V9.1313C4.70957 9.25805 4.75957 9.36751 4.85957 9.45969C4.95956 9.55188 5.07831 9.59797 5.21581 9.59797H6.64077Z" fill="#C5C6EF"/>
</svg>
