<svg width="35" height="30" viewBox="0 0 35 30" fill="none" xmlns="http://www.w3.org/2000/svg">
<g clip-path="url(#clip0_60_4647)">
<path d="M23.2301 14.8149C23.2301 15.9943 22.6681 17.1255 21.6678 17.9595C20.6675 18.7935 19.3107 19.262 17.8961 19.262C16.4814 19.262 15.1246 18.7935 14.1243 17.9595C13.124 17.1255 12.562 15.9943 12.562 14.8149C12.562 13.6354 13.124 12.5042 14.1243 11.6702C15.1246 10.8362 16.4814 10.3677 17.8961 10.3677C19.3107 10.3677 20.6675 10.8362 21.6678 11.6702C22.6681 12.5042 23.2301 13.6354 23.2301 14.8149Z" fill="url(#paint0_linear_60_4647)"/>
<path d="M0.827148 14.8151C0.827148 14.8151 7.22801 5.03125 17.8961 5.03125C28.5642 5.03125 34.9651 14.8151 34.9651 14.8151C34.9651 14.8151 28.5642 24.5989 17.8961 24.5989C7.22801 24.5989 0.827148 14.8151 0.827148 14.8151ZM17.8961 21.0411C19.8767 21.0411 21.7761 20.3852 23.1766 19.2176C24.577 18.0499 25.3638 16.4663 25.3638 14.8151C25.3638 13.1638 24.577 11.5802 23.1766 10.4126C21.7761 9.24496 19.8767 8.589 17.8961 8.589C15.9156 8.589 14.0161 9.24496 12.6157 10.4126C11.2152 11.5802 10.4284 13.1638 10.4284 14.8151C10.4284 16.4663 11.2152 18.0499 12.6157 19.2176C14.0161 20.3852 15.9156 21.0411 17.8961 21.0411Z" fill="url(#paint1_linear_60_4647)"/>
</g>
<defs>
<linearGradient id="paint0_linear_60_4647" x1="17.8961" y1="10.3677" x2="17.8961" y2="19.262" gradientUnits="userSpaceOnUse">
<stop stop-color="#292739"/>
<stop offset="1"/>
</linearGradient>
<linearGradient id="paint1_linear_60_4647" x1="17.8961" y1="5.03125" x2="17.8961" y2="24.5989" gradientUnits="userSpaceOnUse">
<stop stop-color="#292739"/>
<stop offset="1"/>
</linearGradient>
<clipPath id="clip0_60_4647">
<rect width="34.1379" height="28.462" fill="white" transform="translate(0.827148 0.583984)"/>
</clipPath>
</defs>
</svg>
