<svg width="20" height="25" viewBox="0 0 20 25" fill="none" xmlns="http://www.w3.org/2000/svg">
<path d="M16.8607 13.9561C16.8607 19.3349 11.3515 22.6486 10.2066 23.2798C10.1432 23.3148 10.0719 23.3332 9.99949 23.3332C9.92706 23.3332 9.85581 23.3148 9.79238 23.2798C8.64664 22.6486 3.13916 19.3349 3.13916 13.9561C3.13916 9.66809 5.71195 6.6665 9.99992 6.6665C14.2879 6.6665 16.8607 9.66809 16.8607 13.9561Z" stroke="#8D8BA7" stroke-width="1.4" stroke-linecap="round" stroke-linejoin="round"/>
<path d="M6.56934 13.5271C6.56934 14.4369 6.93075 15.3094 7.57407 15.9527C8.21739 16.596 9.08992 16.9574 9.99972 16.9574C10.9095 16.9574 11.782 16.596 12.4254 15.9527C13.0687 15.3094 13.4301 14.4369 13.4301 13.5271C13.4301 12.6173 13.0687 11.7447 12.4254 11.1014C11.782 10.4581 10.9095 10.0967 9.99972 10.0967C9.08992 10.0967 8.21739 10.4581 7.57407 11.1014C6.93075 11.7447 6.56934 12.6173 6.56934 13.5271V13.5271Z" stroke="#8D8BA7" stroke-width="1.4" stroke-linecap="round" stroke-linejoin="round"/>
</svg>
