<svg width="48" height="48" viewBox="0 0 48 48" fill="none" xmlns="http://www.w3.org/2000/svg">
<path d="M18.232 27.498L16 9.896L13.768 27.496H6C4.896 27.496 4 26.622 4 25.544C4.00633 25.0196 4.22048 24.5191 4.59544 24.1523C4.97041 23.7856 5.47555 23.5827 6 23.588H10.232L12.032 9.416C12.3 7.272 14.3 5.752 16.49 6.016C18.31 6.236 19.742 7.636 19.968 9.416L21.766 23.588H25.714L28 38.08L30.284 23.59H42C43.104 23.59 44 24.466 44 25.546C44 26.626 43.104 27.5 42 27.5H33.716L31.954 38.674C31.8162 39.5034 31.4178 40.2673 30.8165 40.8549C30.2152 41.4425 29.4423 41.8233 28.61 41.942C26.426 42.272 24.384 40.808 24.046 38.674L22.286 27.5H18.23L18.232 27.498Z" fill="#C1C7CD"/>
</svg>
