<svg width="24" height="25" viewBox="0 0 24 25" fill="none" xmlns="http://www.w3.org/2000/svg">
<path d="M15.586 11.2289L11.636 7.27894C11.4538 7.09034 11.353 6.83774 11.3553 6.57554C11.3576 6.31334 11.4628 6.06253 11.6482 5.87712C11.8336 5.69171 12.0844 5.58654 12.3466 5.58427C12.6088 5.58199 12.8614 5.68278 13.05 5.86494L18.707 11.5219C18.8002 11.6146 18.8741 11.7248 18.9246 11.8461C18.9751 11.9674 19.001 12.0975 19.001 12.2289C19.001 12.3603 18.9751 12.4905 18.9246 12.6118C18.8741 12.7331 18.8002 12.8433 18.707 12.9359L13.05 18.5929C12.9578 18.6885 12.8474 18.7646 12.7254 18.817C12.6034 18.8695 12.4722 18.897 12.3394 18.8982C12.2066 18.8993 12.0749 18.874 11.952 18.8238C11.8291 18.7735 11.7175 18.6992 11.6236 18.6053C11.5297 18.5114 11.4555 18.3998 11.4052 18.2769C11.3549 18.154 11.3296 18.0223 11.3307 17.8895C11.3319 17.7568 11.3595 17.6255 11.4119 17.5035C11.4643 17.3815 11.5405 17.2712 11.636 17.1789L15.586 13.2289H6C5.73478 13.2289 5.48043 13.1236 5.29289 12.936C5.10536 12.7485 5 12.4942 5 12.2289C5 11.9637 5.10536 11.7094 5.29289 11.5218C5.48043 11.3343 5.73478 11.2289 6 11.2289H15.586V11.2289Z" fill="white"/>
</svg>
