<svg width="24" height="25" viewBox="0 0 24 25" fill="none" xmlns="http://www.w3.org/2000/svg">
<path d="M12.0711 13.814L17.0211 8.864C17.1134 8.76849 17.2237 8.69231 17.3457 8.6399C17.4677 8.58749 17.599 8.55991 17.7317 8.55875C17.8645 8.5576 17.9962 8.5829 18.1191 8.63318C18.242 8.68346 18.3536 8.75772 18.4475 8.85161C18.5414 8.9455 18.6157 9.05715 18.666 9.18005C18.7162 9.30295 18.7415 9.43463 18.7404 9.56741C18.7392 9.70018 18.7117 9.8314 18.6592 9.95341C18.6068 10.0754 18.5307 10.1858 18.4351 10.278L12.7781 15.935C12.5906 16.1225 12.3363 16.2278 12.0711 16.2278C11.806 16.2278 11.5517 16.1225 11.3641 15.935L5.70714 10.278C5.61163 10.1858 5.53545 10.0754 5.48304 9.95341C5.43063 9.8314 5.40305 9.70018 5.40189 9.56741C5.40074 9.43463 5.42604 9.30295 5.47632 9.18005C5.5266 9.05715 5.60086 8.9455 5.69475 8.85161C5.78864 8.75772 5.90029 8.68346 6.02319 8.63318C6.14609 8.5829 6.27777 8.5576 6.41054 8.55875C6.54332 8.55991 6.67454 8.58749 6.79655 8.6399C6.91855 8.69231 7.0289 8.76849 7.12114 8.864L12.0711 13.814Z" fill="#697077"/>
</svg>
