<svg width="24" height="25" viewBox="0 0 24 25" fill="none" xmlns="http://www.w3.org/2000/svg">
<path d="M13.3999 11.9719V6.97192C13.3999 6.70671 13.2945 6.45235 13.107 6.26482C12.9195 6.07728 12.6651 5.97192 12.3999 5.97192C12.1347 5.97192 11.8803 6.07728 11.6928 6.26482C11.5053 6.45235 11.3999 6.70671 11.3999 6.97192V11.9719H6.3999C6.13469 11.9719 5.88033 12.0773 5.6928 12.2648C5.50526 12.4524 5.3999 12.7067 5.3999 12.9719C5.3999 13.2371 5.50526 13.4915 5.6928 13.679C5.88033 13.8666 6.13469 13.9719 6.3999 13.9719H11.3999V18.9719C11.3999 19.2371 11.5053 19.4915 11.6928 19.679C11.8803 19.8666 12.1347 19.9719 12.3999 19.9719C12.6651 19.9719 12.9195 19.8666 13.107 19.679C13.2945 19.4915 13.3999 19.2371 13.3999 18.9719V13.9719H18.3999C18.6651 13.9719 18.9195 13.8666 19.107 13.679C19.2945 13.4915 19.3999 13.2371 19.3999 12.9719C19.3999 12.7067 19.2945 12.4524 19.107 12.2648C18.9195 12.0773 18.6651 11.9719 18.3999 11.9719H13.3999Z" fill="white"/>
</svg>
