<svg width="25" height="24" viewBox="0 0 25 24" fill="none" xmlns="http://www.w3.org/2000/svg">
<path d="M11 16.5C11.7879 16.5 12.5682 16.3448 13.2961 16.0433C14.0241 15.7418 14.6855 15.2998 15.2427 14.7427C15.7998 14.1855 16.2418 13.5241 16.5433 12.7961C16.8448 12.0682 17 11.2879 17 10.5C17 9.71208 16.8448 8.93187 16.5433 8.20391C16.2418 7.47596 15.7998 6.81453 15.2427 6.25737C14.6855 5.70022 14.0241 5.25827 13.2961 4.95674C12.5682 4.65521 11.7879 4.50002 11 4.50002C9.40872 4.50002 7.88259 5.13216 6.75737 6.25737C5.63216 7.38259 5.00002 8.90872 5.00002 10.5C5.00002 12.0913 5.63216 13.6174 6.75737 14.7427C7.88259 15.8679 9.40872 16.5 11 16.5V16.5ZM17.32 15.406L20.9 18.986C20.9955 19.0783 21.0716 19.1887 21.1239 19.3108C21.1762 19.4328 21.2037 19.564 21.2048 19.6968C21.2058 19.8296 21.1804 19.9613 21.13 20.0841C21.0797 20.207 21.0053 20.3186 20.9114 20.4124C20.8174 20.5062 20.7057 20.5804 20.5828 20.6306C20.4599 20.6808 20.3282 20.706 20.1954 20.7048C20.0626 20.7035 19.9314 20.6758 19.8095 20.6233C19.6875 20.5708 19.5772 20.4946 19.485 20.399L15.905 16.819C14.2975 18.0669 12.2748 18.6552 10.2488 18.4642C8.22273 18.2732 6.34562 17.3173 4.99957 15.7911C3.65351 14.2648 2.9397 12.283 3.00344 10.2489C3.06718 8.21492 3.90368 6.28164 5.34266 4.84266C6.78164 3.40368 8.71492 2.56718 10.7489 2.50344C12.783 2.4397 14.7648 3.15351 16.2911 4.49957C17.8173 5.84562 18.7732 7.72273 18.9642 9.74877C19.1552 11.7748 18.5669 13.7975 17.319 15.405L17.32 15.406Z" fill="#697077"/>
</svg>
