<svg width="25" height="25" viewBox="0 0 25 25" fill="none" xmlns="http://www.w3.org/2000/svg">
<path d="M16.086 11.2289L12.136 7.27894C11.9538 7.09034 11.853 6.83774 11.8553 6.57554C11.8576 6.31334 11.9628 6.06253 12.1482 5.87712C12.3336 5.69171 12.5844 5.58654 12.8466 5.58427C13.1088 5.58199 13.3614 5.68278 13.55 5.86494L19.207 11.5219C19.3002 11.6146 19.3741 11.7248 19.4246 11.8461C19.4751 11.9674 19.501 12.0975 19.501 12.2289C19.501 12.3603 19.4751 12.4905 19.4246 12.6118C19.3741 12.7331 19.3002 12.8433 19.207 12.9359L13.55 18.5929C13.4578 18.6885 13.3474 18.7646 13.2254 18.817C13.1034 18.8695 12.9722 18.897 12.8394 18.8982C12.7066 18.8993 12.5749 18.874 12.452 18.8238C12.3291 18.7735 12.2175 18.6992 12.1236 18.6053C12.0297 18.5114 11.9555 18.3998 11.9052 18.2769C11.8549 18.154 11.8296 18.0223 11.8307 17.8895C11.8319 17.7568 11.8595 17.6255 11.9119 17.5035C11.9643 17.3815 12.0405 17.2712 12.136 17.1789L16.086 13.2289H6.5C6.23478 13.2289 5.98043 13.1236 5.79289 12.936C5.60536 12.7485 5.5 12.4942 5.5 12.2289C5.5 11.9637 5.60536 11.7094 5.79289 11.5218C5.98043 11.3343 6.23478 11.2289 6.5 11.2289H16.086V11.2289Z" fill="white"/>
</svg>
