<svg width="21" height="20" viewBox="0 0 21 20" fill="none" xmlns="http://www.w3.org/2000/svg">
<path d="M14.3444 7.61627H6.01107C4.86047 7.61627 3.92773 8.54901 3.92773 9.69961V15.9496C3.92773 17.1002 4.86047 18.0329 6.01107 18.0329H14.3444C15.495 18.0329 16.4277 17.1002 16.4277 15.9496V9.69961C16.4277 8.54901 15.495 7.61627 14.3444 7.61627Z" stroke="#1E285F" stroke-width="1.4" stroke-linecap="round" stroke-linejoin="round"/>
<path d="M10.1774 1.36627C9.07234 1.36627 8.01253 1.80526 7.23113 2.58666C6.44973 3.36806 6.01074 4.42787 6.01074 5.53294V7.61627H14.3441V5.53294C14.3441 4.42787 13.9051 3.36806 13.1237 2.58666C12.3423 1.80526 11.2825 1.36627 10.1774 1.36627V1.36627Z" stroke="#1E285F" stroke-width="1.4" stroke-linecap="round" stroke-linejoin="round"/>
</svg>
