<svg width="24" height="24" viewBox="0 0 24 24" fill="none" xmlns="http://www.w3.org/2000/svg">
<path d="M22.25 8.00491C22.25 7.59689 22.0879 7.20557 21.7994 6.91705C21.5109 6.62854 21.1196 6.46645 20.7115 6.46645H10.7115L8.86538 4.00491C8.72208 3.81384 8.53626 3.65876 8.32264 3.55195C8.10901 3.44513 7.87345 3.38953 7.63462 3.38953H3.78846C3.38044 3.38953 2.98912 3.55161 2.70061 3.84013C2.41209 4.12865 2.25 4.51996 2.25 4.92799V18.7741C2.25 19.1822 2.41209 19.5735 2.70061 19.862C2.98912 20.1505 3.38044 20.3126 3.78846 20.3126H20.7115C21.1196 20.3126 21.5109 20.1505 21.7994 19.862C22.0879 19.5735 22.25 19.1822 22.25 18.7741V8.00491Z" stroke="#5D5A88" stroke-width="2" stroke-linecap="round" stroke-linejoin="round"/>
</svg>
