<svg width="21" height="20" viewBox="0 0 21 20" fill="none" xmlns="http://www.w3.org/2000/svg">
<path d="M14.3444 7.61621H6.01107C4.86047 7.61621 3.92773 8.54895 3.92773 9.69954V15.9495C3.92773 17.1001 4.86047 18.0329 6.01107 18.0329H14.3444C15.495 18.0329 16.4277 17.1001 16.4277 15.9495V9.69954C16.4277 8.54895 15.495 7.61621 14.3444 7.61621Z" stroke="#1E285F" stroke-width="1.4" stroke-linecap="round" stroke-linejoin="round"/>
<path d="M10.1774 1.36621C9.07234 1.36621 8.01253 1.8052 7.23113 2.5866C6.44973 3.368 6.01074 4.42781 6.01074 5.53288V7.61621H14.3441V5.53288C14.3441 4.42781 13.9051 3.368 13.1237 2.5866C12.3423 1.8052 11.2825 1.36621 10.1774 1.36621V1.36621Z" stroke="#1E285F" stroke-width="1.4" stroke-linecap="round" stroke-linejoin="round"/>
</svg>
