<svg width="25" height="24" viewBox="0 0 25 24" fill="none" xmlns="http://www.w3.org/2000/svg">
<path d="M22.75 8.00491C22.75 7.59689 22.5879 7.20557 22.2994 6.91705C22.0109 6.62854 21.6196 6.46645 21.2115 6.46645H11.2115L9.36538 4.00491C9.22208 3.81384 9.03626 3.65876 8.82264 3.55195C8.60901 3.44513 8.37345 3.38953 8.13462 3.38953H4.28846C3.88044 3.38953 3.48912 3.55161 3.20061 3.84013C2.91209 4.12865 2.75 4.51996 2.75 4.92799V18.7741C2.75 19.1822 2.91209 19.5735 3.20061 19.862C3.48912 20.1505 3.88044 20.3126 4.28846 20.3126H21.2115C21.6196 20.3126 22.0109 20.1505 22.2994 19.862C22.5879 19.5735 22.75 19.1822 22.75 18.7741V8.00491Z" stroke="#5D5A88" stroke-width="2" stroke-linecap="round" stroke-linejoin="round"/>
</svg>
