<svg width="24" height="23" viewBox="0 0 24 23" fill="none" xmlns="http://www.w3.org/2000/svg">
<path d="M1 10.8027C1 11.8228 1.40522 12.801 2.12651 13.5223C2.8478 14.2436 3.82609 14.6488 4.84615 14.6488C5.86621 14.6488 6.8445 14.2436 7.56579 13.5223C8.28708 12.801 8.6923 11.8228 8.6923 10.8027C8.6923 9.78263 8.28708 8.80435 7.56579 8.08305C6.8445 7.36176 5.86621 6.95654 4.84615 6.95654C3.82609 6.95654 2.8478 7.36176 2.12651 8.08305C1.40522 8.80435 1 9.78263 1 10.8027V10.8027Z" stroke="#696969" stroke-width="2" stroke-linecap="round" stroke-linejoin="round"/>
<path d="M14.8467 5.41817C14.8467 6.43823 15.2519 7.41652 15.9732 8.13781C16.6945 8.8591 17.6728 9.26432 18.6928 9.26432C19.7129 9.26432 20.6912 8.8591 21.4125 8.13781C22.1338 7.41652 22.539 6.43823 22.539 5.41817C22.539 4.39811 22.1338 3.41983 21.4125 2.69853C20.6912 1.97724 19.7129 1.57202 18.6928 1.57202C17.6728 1.57202 16.6945 1.97724 15.9732 2.69853C15.2519 3.41983 14.8467 4.39811 14.8467 5.41817Z" stroke="#696969" stroke-width="2" stroke-linecap="round" stroke-linejoin="round"/>
<path d="M14.8467 17.7258C14.8467 18.7459 15.2519 19.7241 15.9732 20.4454C16.6945 21.1667 17.6728 21.5719 18.6928 21.5719C19.7129 21.5719 20.6912 21.1667 21.4125 20.4454C22.1338 19.7241 22.539 18.7459 22.539 17.7258C22.539 16.7057 22.1338 15.7274 21.4125 15.0062C20.6912 14.2849 19.7129 13.8796 18.6928 13.8796C17.6728 13.8796 16.6945 14.2849 15.9732 15.0062C15.2519 15.7274 14.8467 16.7057 14.8467 17.7258Z" stroke="#696969" stroke-width="2" stroke-linecap="round" stroke-linejoin="round"/>
<path d="M8.43213 9.40888L15.107 6.81299" stroke="#696969" stroke-width="2" stroke-linecap="round" stroke-linejoin="round"/>
<path d="M8.28711 12.5239L15.2512 16.006" stroke="#696969" stroke-width="2" stroke-linecap="round" stroke-linejoin="round"/>
</svg>
