<svg width="20" height="20" viewBox="0 0 20 20" fill="none" xmlns="http://www.w3.org/2000/svg">
<path fill-rule="evenodd" clip-rule="evenodd" d="M1 9.99988C1 6.40474 1 4.60717 1.85669 3.31243C2.23925 2.73427 2.73439 2.23912 3.31255 1.85657C4.60729 0.999878 6.40486 0.999878 10 0.999878C13.5951 0.999878 15.3927 0.999878 16.6874 1.85657C17.2656 2.23912 17.7608 2.73427 18.1433 3.31243C19 4.60717 19 6.40474 19 9.99988C19 13.595 19 15.3926 18.1433 16.6873C17.7608 17.2655 17.2656 17.7606 16.6874 18.1432C15.3927 18.9999 13.5951 18.9999 10 18.9999C6.40486 18.9999 4.60729 18.9999 3.31255 18.1432C2.73439 17.7606 2.23925 17.2655 1.85669 16.6873C1 15.3926 1 13.595 1 9.99988ZM14.6596 10.0002C14.6596 12.5735 12.5735 14.6596 10.0002 14.6596C7.42688 14.6596 5.34079 12.5735 5.34079 10.0002C5.34079 7.42685 7.42688 5.34076 10.0002 5.34076C12.5735 5.34076 14.6596 7.42685 14.6596 10.0002ZM10.0002 13.0832C11.7029 13.0832 13.0832 11.7029 13.0832 10.0002C13.0832 8.29747 11.7029 6.91716 10.0002 6.91716C8.29751 6.91716 6.9172 8.29747 6.9172 10.0002C6.9172 11.7029 8.29751 13.0832 10.0002 13.0832ZM14.8436 6.20149C15.4483 6.20149 15.9385 5.71132 15.9385 5.10666C15.9385 4.50201 15.4483 4.01184 14.8436 4.01184C14.239 4.01184 13.7488 4.50201 13.7488 5.10666C13.7488 5.71132 14.239 6.20149 14.8436 6.20149Z" fill="#8A8A8A"/>
</svg>
