<svg width="20" height="20" viewBox="0 0 20 20" fill="none" xmlns="http://www.w3.org/2000/svg">
<path fill-rule="evenodd" clip-rule="evenodd" d="M1 10C1 6.40486 1 4.60729 1.85669 3.31255C2.23925 2.73439 2.73439 2.23925 3.31255 1.85669C4.60729 1 6.40486 1 10 1C13.5951 1 15.3927 1 16.6874 1.85669C17.2656 2.23925 17.7608 2.73439 18.1433 3.31255C19 4.60729 19 6.40486 19 10C19 13.5951 19 15.3927 18.1433 16.6874C17.7608 17.2656 17.2656 17.7608 16.6874 18.1433C15.3927 19 13.5951 19 10 19C6.40486 19 4.60729 19 3.31255 18.1433C2.73439 17.7608 2.23925 17.2656 1.85669 16.6874C1 15.3927 1 13.5951 1 10ZM14.6596 10.0003C14.6596 12.5736 12.5735 14.6597 10.0002 14.6597C7.42688 14.6597 5.34079 12.5736 5.34079 10.0003C5.34079 7.42697 7.42688 5.34088 10.0002 5.34088C12.5735 5.34088 14.6596 7.42697 14.6596 10.0003ZM10.0002 13.0833C11.7029 13.0833 13.0832 11.703 13.0832 10.0003C13.0832 8.29759 11.7029 6.91728 10.0002 6.91728C8.29751 6.91728 6.9172 8.29759 6.9172 10.0003C6.9172 11.703 8.29751 13.0833 10.0002 13.0833ZM14.8436 6.20161C15.4483 6.20161 15.9385 5.71144 15.9385 5.10679C15.9385 4.50213 15.4483 4.01196 14.8436 4.01196C14.239 4.01196 13.7488 4.50213 13.7488 5.10679C13.7488 5.71144 14.239 6.20161 14.8436 6.20161Z" fill="#8A8A8A"/>
</svg>
