<svg width="20" height="20" viewBox="0 0 20 20" fill="none" xmlns="http://www.w3.org/2000/svg">
<path fill-rule="evenodd" clip-rule="evenodd" d="M15.316 1H4.68398C2.6578 1 1 2.6578 1 4.68398V15.316C1 17.3422 2.6578 19 4.68398 19H15.316C17.3422 19 19 17.3422 19 15.316V4.68398C19 2.6578 17.3422 1 15.316 1ZM9.98267 3.98169C13.6299 3.98169 16.5865 6.34922 16.5865 9.26972C16.5865 10.2898 16.2255 11.2423 15.6006 12.0501C15.5696 12.0961 15.5292 12.1469 15.4783 12.203L15.4744 12.2072C15.261 12.4626 15.0206 12.7023 14.7563 12.9237C12.9301 14.6116 9.9242 16.6213 9.52748 16.3112C9.3979 16.21 9.44587 15.9607 9.50041 15.6773C9.59103 15.2063 9.69979 14.6411 9.04227 14.5041C8.96879 14.4957 8.89551 14.4867 8.82284 14.4764L8.82146 14.4763V14.4762C5.72805 14.0367 3.37891 11.8729 3.37891 9.26972C3.37881 6.34922 6.33547 3.98169 9.98267 3.98169ZM6.15093 10.9564H7.48281C7.67226 10.9564 7.82721 10.8014 7.82721 10.612V10.5832C7.82721 10.3938 7.67226 10.2388 7.48281 10.2388H6.52406V8.05751C6.52406 7.86806 6.36911 7.7131 6.17966 7.7131H6.15093C5.96147 7.7131 5.80652 7.86806 5.80652 8.05751V10.6119C5.80652 10.8014 5.96147 10.9564 6.15093 10.9564ZM14.404 9.35528V9.32654C14.404 9.13709 14.249 8.98214 14.0595 8.98214H13.1008V8.4368H14.0595C14.249 8.4368 14.404 8.28184 14.404 8.09239V8.06366C14.404 7.87421 14.249 7.71925 14.0595 7.71925H12.7276C12.5382 7.71925 12.3832 7.87421 12.3832 8.06366V10.6181C12.3832 10.8075 12.5382 10.9625 12.7276 10.9625H14.0595C14.249 10.9625 14.404 10.8075 14.404 10.6181V10.5893C14.404 10.3999 14.249 10.2449 14.0595 10.2449H13.1008V9.69959H14.0595C14.249 9.69968 14.404 9.54468 14.404 9.35528ZM11.8426 10.8537L11.8427 10.8536C11.9064 10.7893 11.9422 10.7025 11.9423 10.612V8.05761C11.9423 7.86815 11.7873 7.7132 11.5978 7.7132H11.5691C11.3796 7.7132 11.2247 7.86815 11.2247 8.05761V9.55707L9.9798 7.88736C9.92034 7.78353 9.80836 7.7132 9.68076 7.7132H9.65203C9.46257 7.7132 9.30757 7.86815 9.30757 8.05761V10.612C9.30757 10.8015 9.46253 10.9565 9.65203 10.9565H9.68076C9.87021 10.9565 10.0252 10.8015 10.0252 10.612V9.08449L11.279 10.797C11.2867 10.809 11.2952 10.8206 11.3043 10.8315L11.3043 10.8316C11.3387 10.8786 11.3859 10.9108 11.4384 10.9305C11.4787 10.9472 11.5229 10.9564 11.569 10.9564H11.5978C11.6539 10.9565 11.7092 10.9426 11.7587 10.9162C11.7931 10.8998 11.8221 10.8787 11.8426 10.8537ZM8.4496 10.9564H8.47834C8.66779 10.9564 8.82274 10.8014 8.82274 10.612V8.05756C8.82274 7.86811 8.66779 7.71315 8.47834 7.71315H8.4496C8.26015 7.71315 8.10515 7.86811 8.10515 8.05756V10.612C8.10515 10.8014 8.26015 10.9564 8.4496 10.9564Z" fill="#8A8A8A"/>
</svg>
