<svg width="20" height="20" viewBox="0 0 20 20" fill="none" xmlns="http://www.w3.org/2000/svg">
<path fill-rule="evenodd" clip-rule="evenodd" d="M15.316 0.999878H4.68398C2.6578 0.999878 1 2.65768 1 4.68385V15.3159C1 17.3421 2.6578 18.9999 4.68398 18.9999H15.316C17.3422 18.9999 19 17.3421 19 15.3159V4.68385C19 2.65768 17.3422 0.999878 15.316 0.999878ZM9.98267 3.98157C13.6299 3.98157 16.5865 6.3491 16.5865 9.2696C16.5865 10.2897 16.2255 11.2422 15.6006 12.05C15.5696 12.0959 15.5292 12.1467 15.4783 12.2029L15.4744 12.2071C15.261 12.4625 15.0206 12.7022 14.7563 12.9236C12.9301 14.6115 9.9242 16.6212 9.52748 16.3111C9.3979 16.2099 9.44587 15.9606 9.50041 15.6771C9.59103 15.2062 9.69979 14.641 9.04227 14.504C8.96879 14.4956 8.89551 14.4865 8.82284 14.4762L8.82146 14.4761V14.4761C5.72805 14.0366 3.37891 11.8728 3.37891 9.2696C3.37881 6.3491 6.33547 3.98157 9.98267 3.98157ZM6.15093 10.9563H7.48281C7.67226 10.9563 7.82721 10.8013 7.82721 10.6118V10.5831C7.82721 10.3937 7.67226 10.2387 7.48281 10.2387H6.52406V8.05739C6.52406 7.86794 6.36911 7.71298 6.17966 7.71298H6.15093C5.96147 7.71298 5.80652 7.86794 5.80652 8.05739V10.6118C5.80652 10.8013 5.96147 10.9563 6.15093 10.9563ZM14.404 9.35515V9.32642C14.404 9.13697 14.249 8.98202 14.0595 8.98202H13.1008V8.43667H14.0595C14.249 8.43667 14.404 8.28172 14.404 8.09227V8.06354C14.404 7.87408 14.249 7.71913 14.0595 7.71913H12.7276C12.5382 7.71913 12.3832 7.87408 12.3832 8.06354V10.6179C12.3832 10.8074 12.5382 10.9624 12.7276 10.9624H14.0595C14.249 10.9624 14.404 10.8074 14.404 10.6179V10.5892C14.404 10.3998 14.249 10.2448 14.0595 10.2448H13.1008V9.69947H14.0595C14.249 9.69956 14.404 9.54456 14.404 9.35515ZM11.8426 10.8536L11.8427 10.8535C11.9064 10.7892 11.9422 10.7024 11.9423 10.6119V8.05748C11.9423 7.86803 11.7873 7.71308 11.5978 7.71308H11.5691C11.3796 7.71308 11.2247 7.86803 11.2247 8.05748V9.55695L9.9798 7.88723C9.92034 7.78341 9.80836 7.71308 9.68076 7.71308H9.65203C9.46257 7.71308 9.30757 7.86803 9.30757 8.05748V10.6119C9.30757 10.8013 9.46253 10.9563 9.65203 10.9563H9.68076C9.87021 10.9563 10.0252 10.8013 10.0252 10.6119V9.08437L11.279 10.7969C11.2867 10.8089 11.2952 10.8205 11.3043 10.8314L11.3043 10.8315C11.3387 10.8785 11.3859 10.9107 11.4384 10.9304C11.4787 10.9471 11.5229 10.9563 11.569 10.9563H11.5978C11.6539 10.9563 11.7092 10.9425 11.7587 10.9161C11.7931 10.8997 11.8221 10.8785 11.8426 10.8536ZM8.4496 10.9563H8.47834C8.66779 10.9563 8.82274 10.8013 8.82274 10.6118V8.05744C8.82274 7.86798 8.66779 7.71303 8.47834 7.71303H8.4496C8.26015 7.71303 8.10515 7.86798 8.10515 8.05744V10.6118C8.10515 10.8013 8.26015 10.9563 8.4496 10.9563Z" fill="#8A8A8A"/>
</svg>
